<svg
                  viewBox="0 0 268.0201416015625 158.116943359375"
                  version="1.1"
                  xmlns="http://www.w3.org/2000/svg"
                  class="layout-box"
                  style="
                    margin-left: -5px;
                    height: 22.44067996285568px;
                    width: 38.03864464802982px;
                  "
                >
                  <g
                    transform="matrix(1 0 0 1 76.22503906249995 114.2884521484375)"
                  >
                    <path
                      d="M103.125-35.2539C103.125-36.4746 102.637-37.5977 101.66-38.5254L69.2871-70.8008C68.2129-71.875 67.1875-72.2656 66.0156-72.2656C63.623-72.2656 61.7676-70.5078 61.7676-68.0664C61.7676-66.8945 62.1582-65.7715 62.9395-64.9902L73.877-53.8574L90.2832-38.8672L78.5156-39.5996L16.748-39.5996C14.209-39.5996 12.4512-37.793 12.4512-35.2539C12.4512-32.7148 14.209-30.9082 16.748-30.9082L78.5156-30.9082L90.332-31.6406L73.877-16.6504L62.9395-5.51758C62.1582-4.78516 61.7676-3.61328 61.7676-2.44141C61.7676 0 63.623 1.75781 66.0156 1.75781C67.1875 1.75781 68.2129 1.31836 69.1895 0.390625L101.66-31.9824C102.637-32.9102 103.125-34.0332 103.125-35.2539Z"
                    ></path>
                  </g>
                </svg>