<svg  xmlns="http://www.w3.org/2000/svg" xmlns:xlink="http://www.w3.org/1999/xlink" viewBox="0 0 32 32" version="1.1" width="40px">
    <title>Kube</title>
    <defs>
        <linearGradient x1="50%" y1="0%" x2="50%" y2="100%" id="linearGradient-1">
            <stop stop-color="#2997FF" offset="0.0895466838%"/>
            <stop stop-color="#0066CC" offset="100%"/>
        </linearGradient>
    </defs>
    <g id="Kube" stroke="none" stroke-width="1" fill="none" fill-rule="evenodd">
        <rect id="BG" fill-opacity="0" fill="#FFFFFF" x="0" y="0" width="32" height="32"/>
        <g id="Group-3" transform="translate(3.062500, 3.437500)" fill="url(#linearGradient-1)" fill-rule="nonzero">
            <path d="M12.9375,0 C14.0141716,0 14.8869863,0.863045 14.8869863,1.92766496 C14.8869863,2.00251097 14.8826724,2.07636069 14.874277,2.14898428 L20.411967,4.78588574 C20.7694447,4.37695602 21.2978689,4.11819333 21.8874144,4.11819333 C22.9640859,4.11819333 23.8369007,4.98123833 23.8369007,6.04585829 C23.8369007,6.77385196 23.4287805,7.40759103 22.8264337,7.73557607 L24.2213608,13.7785722 C25.1576354,13.9195183 25.875,14.7190137 25.875,15.6841831 C25.875,16.7488031 25.0021853,17.6118481 23.9255137,17.6118481 C23.7075982,17.6118481 23.4980336,17.5764937 23.3023663,17.5112692 L19.4897791,22.238679 C19.661902,22.5260405 19.7607021,22.8614117 19.7607021,23.2196007 C19.7607021,24.2842206 18.8878873,25.1472656 17.8112158,25.1472656 C16.9689746,25.1472656 16.251481,24.6191368 15.978962,23.8795222 L9.80742494,23.8795222 C9.53490603,24.6191368 8.81741235,25.1472656 7.97517123,25.1472656 C6.89849968,25.1472656 6.02568493,24.2842206 6.02568493,23.2196007 C6.02568493,22.8353745 6.13937086,22.4774039 6.33529597,22.1767836 L2.57257102,17.5112901 C2.3769217,17.5765012 2.16737858,17.6118481 1.9494863,17.6118481 C0.872814747,17.6118481 0,16.7488031 0,15.6841831 C0,14.7190137 0.717364624,13.9195183 1.65363924,13.7785722 L3.04856626,7.73557607 C2.4462195,7.40759103 2.03809932,6.77385196 2.03809932,6.04585829 C2.03809932,4.98123833 2.91091406,4.11819333 3.98758562,4.11819333 C4.57716131,4.11819333 5.10560933,4.3769825 5.46308783,4.7859485 L11.000723,2.14898428 C10.9923276,2.07636069 10.9880137,2.00251097 10.9880137,1.92766496 C10.9880137,0.863045 11.8608284,0 12.9375,0 Z M7.97517123,22.168147 C7.48615343,22.168147 7.07423476,22.4945528 6.95008682,22.9390507 L6.94289364,22.9301719 C6.91603345,23.0222023 6.90166154,23.1193164 6.90166154,23.2196007 C6.90166154,23.7982111 7.38009471,24.271289 7.97517123,24.271289 C8.31374926,24.271289 8.61456728,24.1181434 8.81098852,23.8795491 L8.80303615,23.8795456 C8.95033233,23.6991113 9.0385274,23.4695402 9.0385274,23.2196007 C9.0385274,22.6388989 8.56244663,22.168147 7.97517123,22.168147 Z M17.8112158,22.168147 C17.2239404,22.168147 16.7478596,22.6388989 16.7478596,23.2196007 C16.7478596,23.4695402 16.8360547,23.6991113 16.9833508,23.8795456 L16.9753985,23.8795491 C17.1718197,24.1181434 17.4726377,24.271289 17.8112158,24.271289 C18.4062923,24.271289 18.8847254,23.7982111 18.8847254,23.2196007 C18.8847254,23.1494062 18.8776841,23.0807649 18.8642474,23.014333 L18.856246,23.02421 C18.7636267,22.536872 18.3309688,22.168147 17.8112158,22.168147 Z M14.669,17.8008125 L11.1629375,17.8008125 L9.23832542,21.6436419 C9.6222717,21.9480682 9.89277289,22.3883569 9.97550742,22.892159 L9.97920586,22.9159512 L15.8071723,22.9159512 L15.8108796,22.892159 C15.8954217,22.3773496 16.176025,21.9288592 16.5733892,21.6238834 L14.669,17.8008125 Z M17.7275,14.67425 L15.479,17.4621875 L17.3673091,21.2530903 C17.4997569,21.2236526 17.6370501,21.2071088 17.7777677,21.204842 L17.8112158,21.2045728 C18.1823562,21.2045728 18.5330158,21.3044933 18.8350512,21.4804002 L18.85425,21.491748 L22.477909,16.9986891 L22.4690701,16.9885152 C22.3658979,16.8678216 22.2768224,16.7349269 22.2043071,16.5923676 L22.1849426,16.5532501 C22.0513087,16.2921238 21.9760274,15.9968465 21.9760274,15.6841831 C21.9760274,15.6121231 21.9800261,15.5409866 21.9878161,15.4709787 L17.7275,14.67425 Z M8.1474375,14.67425 L3.96365834,15.4566782 C3.97086516,15.5205144 3.97507527,15.5852648 3.97614447,15.6507891 L3.97641674,15.6841831 C3.97641674,16.2083798 3.77541971,16.6849513 3.44627773,17.0428701 L3.43897617,17.0506547 L6.9926918,21.4569785 L7.00761991,21.4488075 C7.28946876,21.2964767 7.61019989,21.2092407 7.94776466,21.2047548 L7.97517123,21.2045728 C8.13881612,21.2045728 8.29801554,21.2238827 8.45055983,21.2603515 L10.3693125,17.4291875 L8.1474375,14.67425 Z M12.9375,8.9437207 L9.60835781,10.5289957 L8.78979141,14.0752992 L11.0879496,16.9248645 L14.7870234,16.9248645 L17.0851816,14.0752992 L16.2666152,10.5289957 L12.9375,8.9437207 Z M1.9494863,14.6327295 C1.75876057,14.6327295 1.5797627,14.6823804 1.42499124,14.7693235 L1.42578388,14.7658447 C1.09715165,14.9461529 0.875976611,15.2907746 0.875976611,15.6841831 C0.875976611,16.262041 1.35316611,16.7346407 1.94716507,16.735869 L1.94703173,16.735634 L1.9494863,16.7356367 C2.53676169,16.7356367 3.01284247,16.2648849 3.01284247,15.6841831 C3.01284247,15.1034813 2.53676169,14.6327295 1.9494863,14.6327295 Z M23.9728017,14.6334944 L23.9537857,14.6343939 C23.3945843,14.6653259 22.9507705,15.1235055 22.9507705,15.6841831 C22.9507705,16.2370728 23.3823406,16.6902922 23.9305512,16.7324369 L23.92775,16.7358125 L23.9459868,16.7356845 C24.5315255,16.7249821 24.9990234,16.2561429 24.9990234,15.6841831 C24.9990234,15.1209818 24.5457335,14.6577669 23.9728017,14.6334944 Z M20.6566845,7.64699754 L17.14225,10.4279375 L17.92525,13.8200625 L22.2831847,14.6350025 C22.5035794,14.2764847 22.8334741,13.9920521 23.2261718,13.8271625 L23.242084,13.8205922 L21.9125672,8.06070938 L21.8874144,8.06088617 C21.4250771,8.06088617 20.9982236,7.90675394 20.6566845,7.64699754 Z M3.98758562,8.06088617 L3.96240586,8.06070938 L2.6401125,13.7892727 L2.64916775,13.7925094 C3.07510343,13.9482884 3.43433291,14.2422248 3.67120557,14.6201449 L7.9496875,13.8200625 L8.733375,10.425 L5.25716353,7.61670266 C4.9094073,7.89472658 4.4676228,8.06088617 3.98758562,8.06088617 Z M14.5974082,3.08435391 L14.5909305,3.0936223 C14.3123832,3.48318611 13.8980856,3.76975474 13.4173125,3.8858378 L13.4173125,8.202 L16.617625,9.7259375 L20.0900141,6.97836016 C19.9434431,6.69973882 19.8604839,6.38262694 19.8604839,6.04585829 C19.8604839,5.91724429 19.8727279,5.79064347 19.896359,5.66738228 L19.9076051,5.61296133 L14.5974082,3.08435391 Z M11.2775648,3.08435391 L5.96739492,5.61296133 L5.96924875,5.62132535 C5.99766702,5.75277021 6.01307785,5.88825728 6.01442012,6.02614403 L6.01451605,6.04585829 C6.01451605,6.36523414 5.93990466,6.66693118 5.80718366,6.9348856 L9.26025,9.7245625 L12.5413884,8.162125 L12.5413884,3.90419517 C12.0251153,3.80244132 11.5786688,3.5056358 11.2840695,3.0936223 L11.2775648,3.08435391 Z M3.98758562,4.99416994 C3.39250909,4.99416994 2.91407593,5.46724782 2.91407593,6.04585829 C2.91407593,6.35094764 3.04709159,6.62669645 3.26008597,6.81922402 L3.26131979,6.81387031 C3.45139293,6.98968371 3.70677804,7.0973119 3.98758562,7.0973119 C4.57486101,7.0973119 5.05094178,6.62656008 5.05094178,6.04585829 C5.05094178,5.69456315 4.87671353,5.3835057 4.60903896,5.19256367 L4.61279884,5.19079543 C4.43699307,5.06713238 4.22128425,4.99416994 3.98758562,4.99416994 Z M21.8874144,4.99416994 C21.6537436,4.99416994 21.4380583,5.06711502 21.2622639,5.19075129 L21.2659744,5.19255415 C20.9982923,5.38349536 20.8240582,5.6945573 20.8240582,6.04585829 C20.8240582,6.62656008 21.300139,7.0973119 21.8874144,7.0973119 C22.1682244,7.0973119 22.4236115,6.98968184 22.6136852,6.81386573 L22.614914,6.81922402 C22.8279084,6.62669645 22.9609241,6.35094764 22.9609241,6.04585829 C22.9609241,5.46724782 22.4824909,4.99416994 21.8874144,4.99416994 Z M12.9375,0.875976611 C12.4123355,0.875976611 11.9780169,1.24442585 11.8832144,1.72869812 L11.8941715,1.72352505 C11.8810314,1.78956246 11.8741438,1.85781838 11.8741438,1.92766496 C11.8741438,2.50836676 12.3502246,2.97911858 12.9375,2.97911858 C13.5247754,2.97911858 14.0008562,2.50836676 14.0008562,1.92766496 C14.0008562,1.85781838 13.9939686,1.78956246 13.9808285,1.72352505 L13.9917856,1.72869812 C13.8969831,1.24442585 13.4626645,0.875976611 12.9375,0.875976611 Z" id="Shape"/>
        </g>
    </g>
</svg>